<svg xmlns="http://www.w3.org/2000/svg" viewBox="0 0 159.7 112.55"><defs><style>.cls-1{fill:#cbd1d7;}.cls-2{fill:#8da4b7;}.cls-3{fill:#332d28;}.cls-4{fill:#545655;}.cls-5{fill:#6d6d6d;}.cls-6{fill:#303331;}.cls-7{fill:#fcba59;}.cls-8{fill:#f49519;}.cls-9{opacity:0.5;}.cls-10{fill:#c0ecff;}.cls-11,.cls-13{fill:#fff;}.cls-11{opacity:0.65;}.cls-12{fill:#93cee2;}.cls-14{fill:#61dafb;}.cls-15{fill:#477481;}.cls-16{fill:#295860;}.cls-17{fill:#5c8e99;}.cls-18{fill:#88e0ff;}.cls-19{fill:#4cc5e5;}.cls-20{fill:#ffe652;}.cls-21{fill:#35626d;}</style></defs><g id="Layer_2" data-name="Layer 2"><g id="Layer_1-2" data-name="Layer 1"><rect class="cls-1" x="62.12" y="68.93" width="5.8" height="11.03" transform="translate(77.5 -23.6) rotate(48.39)"/><path class="cls-2" d="M66.44,76.57a.52.52,0,0,1-.37-.16.5.5,0,0,1,0-.71L69,73.06a.5.5,0,0,1,.67.74l-2.93,2.64A.46.46,0,0,1,66.44,76.57Z"/><path class="cls-2" d="M66.38,76.86a.49.49,0,0,1-.49-.4A4,4,0,0,0,63,73.19a.5.5,0,0,1-.37-.59.49.49,0,0,1,.59-.38,5,5,0,0,1,3.64,4,.51.51,0,0,1-.4.59Z"/><path class="cls-3" d="M62.9,80.54a.42.42,0,0,1-.32-.15L58.7,76a.51.51,0,0,1-.11-.31.44.44,0,0,1,.15-.3l4.09-3.64a.43.43,0,0,1,.61,0,.44.44,0,0,1,0,.61l-3.78,3.35,3.31,3.72,7.6-6.75-3.18-3.59-2.41,2a.43.43,0,1,1-.56-.66l2.74-2.32a.42.42,0,0,1,.6,0l3.74,4.23a.43.43,0,0,1,0,.6l-8.25,7.33A.46.46,0,0,1,62.9,80.54Z"/><path class="cls-4" d="M71.92,73.53l-4.24-.94a1.5,1.5,0,0,1-.73-.43,1.55,1.55,0,0,1-.51-.69L65.1,67.33a2.93,2.93,0,0,1,.61-2.83l2.66-2.92a1.53,1.53,0,0,1,2.27,2.06l-2.59,2.85,1.07,3.28,3.36.74,2.59-2.84a1.53,1.53,0,1,1,2.27,2.06l-2.66,2.92A2.88,2.88,0,0,1,71.92,73.53Z"/><polygon class="cls-1" points="30.21 108.63 20.47 108.63 18.47 89.47 32.21 89.47 30.21 108.63"/><rect class="cls-2" x="18.73" y="89.97" width="12.96" height="4.52"/><path class="cls-3" d="M19.87,103.31a.43.43,0,0,1-.43-.39l-.66-6.27a.43.43,0,0,1,.39-.47.42.42,0,0,1,.47.38l.65,6.27a.41.41,0,0,1-.38.47Z"/><path class="cls-3" d="M30.21,109.06H20.47a.43.43,0,0,1-.43-.38l-.37-3.53a.43.43,0,0,1,.86-.09l.33,3.14h9l1.91-18.29H19l.48,4.61A.43.43,0,0,1,19,95a.42.42,0,0,1-.47-.38L18,89.52a.44.44,0,0,1,.43-.48H32.21a.44.44,0,0,1,.43.48l-2,19.16A.43.43,0,0,1,30.21,109.06Z"/><circle class="cls-3" cx="29.15" cy="105.16" r="0.37"/><polygon class="cls-4" points="31.84 112.12 18.84 112.12 19.84 107.61 30.84 107.61 31.84 112.12"/><polygon class="cls-5" points="22.53 107.61 21.53 112.13 18.84 112.13 19.84 107.61 22.53 107.61"/><polygon class="cls-6" points="31.76 112.13 29.07 112.13 28.07 107.61 30.76 107.61 31.76 112.13"/><path class="cls-3" d="M31.84,112.55h-13a.39.39,0,0,1-.33-.16.46.46,0,0,1-.09-.36l1-4.52a.44.44,0,0,1,.42-.33H24.1a.43.43,0,0,1,.43.43.44.44,0,0,1-.43.43H20.19l-.81,3.65H31.3L30.49,108H26.11a.43.43,0,0,1-.43-.43.43.43,0,0,1,.43-.43h4.73a.44.44,0,0,1,.42.33l1,4.52a.46.46,0,0,1-.09.36A.39.39,0,0,1,31.84,112.55Z"/><polygon class="cls-1" points="46.37 108.63 36.63 108.63 34.63 89.47 48.37 89.47 46.37 108.63"/><rect class="cls-2" x="34.89" y="89.97" width="12.96" height="4.52"/><path class="cls-3" d="M36,103.31a.43.43,0,0,1-.43-.39L35,96.65a.41.41,0,0,1,.38-.47.42.42,0,0,1,.47.38l.66,6.27a.43.43,0,0,1-.39.47Z"/><path class="cls-3" d="M46.37,109.06H36.63a.43.43,0,0,1-.43-.38l-.37-3.53a.43.43,0,0,1,.86-.09L37,108.2h9L47.9,89.91H35.11l.48,4.61a.43.43,0,0,1-.86.09l-.53-5.09a.44.44,0,0,1,.43-.48H48.37a.42.42,0,0,1,.32.15.44.44,0,0,1,.11.33l-2,19.16A.43.43,0,0,1,46.37,109.06Z"/><polygon class="cls-4" points="48 112.12 35.01 112.12 36.01 107.61 47 107.61 48 112.12"/><polygon class="cls-5" points="38.7 107.61 37.7 112.13 35.01 112.13 36.01 107.61 38.7 107.61"/><polygon class="cls-6" points="47.92 112.13 45.23 112.13 44.23 107.61 46.92 107.61 47.92 112.13"/><path class="cls-3" d="M48,112.55H35a.39.39,0,0,1-.33-.16.46.46,0,0,1-.09-.36l1-4.52a.44.44,0,0,1,.42-.33h4.26a.43.43,0,0,1,.43.43.43.43,0,0,1-.43.43H36.35l-.81,3.65H47.46L46.65,108H42.27a.43.43,0,0,1-.43-.43.43.43,0,0,1,.43-.43H47a.44.44,0,0,1,.42.33l1,4.52a.42.42,0,0,1-.09.36A.39.39,0,0,1,48,112.55Z"/><path class="cls-3" d="M33.71,13.51a.36.36,0,0,1-.27-.12.38.38,0,0,1,0-.53l1.28-1.22L31.82,2.27A.38.38,0,0,1,32.54,2l3,9.6a.4.4,0,0,1-.1.39L34,13.41A.42.42,0,0,1,33.71,13.51Z"/><path class="cls-3" d="M33.6,25.53a.38.38,0,0,1-.35-.24l-3.38-8.75a.37.37,0,0,1,.09-.41L32.25,14a.37.37,0,0,1,.53,0,.38.38,0,0,1,0,.53l-2.11,2L34,25a.37.37,0,0,1-.22.48A.31.31,0,0,1,33.6,25.53Z"/><path class="cls-7" d="M58.83,31.29H60.4a0,0,0,0,1,0,0v13a0,0,0,0,1,0,0H58.83a2.24,2.24,0,0,1-2.24-2.24V33.53A2.24,2.24,0,0,1,58.83,31.29Z" transform="translate(116.99 75.6) rotate(180)"/><path class="cls-8" d="M56.9,31.29h1.57a0,0,0,0,1,0,0v13a0,0,0,0,1,0,0H56.9a2.24,2.24,0,0,1-2.24-2.24V33.53a2.24,2.24,0,0,1,2.24-2.24Z" transform="translate(113.14 75.6) rotate(180)"/><path class="cls-3" d="M58.17,44.7H56.59a.4.4,0,0,1-.4-.4v-13a.4.4,0,0,1,.4-.4h1.58a2.64,2.64,0,0,1,2.63,2.64v8.54A2.63,2.63,0,0,1,58.17,44.7ZM57,43.91h1.18A1.84,1.84,0,0,0,60,42.07V33.53a1.84,1.84,0,0,0-1.83-1.84H57Z"/><path class="cls-3" d="M58.08,34.48a.4.4,0,0,1-.4-.4V31.65a.4.4,0,0,1,.8,0v2.43A.4.4,0,0,1,58.08,34.48Z"/><rect class="cls-1" x="55.37" y="66.02" width="5.79" height="9.6" transform="translate(141.15 110.08) rotate(154.79)"/><path class="cls-2" d="M56.17,72.46c1.6-3.72,4.06-4.24,4.06-4.24l-1.39-3-4.9,2.36S55.62,73.75,56.17,72.46Z"/><path class="cls-3" d="M57.69,76.83a.45.45,0,0,1-.39-.25L53.21,67.9a.44.44,0,0,1,.21-.58l5.23-2.46a.44.44,0,0,1,.58.21l4.09,8.68a.47.47,0,0,1,0,.33.43.43,0,0,1-.22.24l-5.24,2.47A.39.39,0,0,1,57.69,76.83Zm-3.52-8.91,3.72,7.91,4.46-2.1-3.72-7.91Z"/><circle class="cls-5" cx="53.42" cy="62" r="6.21"/><circle class="cls-4" cx="51.87" cy="63.06" r="6.21"/><path class="cls-3" d="M53.42,68.65A6.65,6.65,0,1,1,60.07,62,6.65,6.65,0,0,1,53.42,68.65Zm0-12.43A5.78,5.78,0,1,0,59.2,62,5.8,5.8,0,0,0,53.42,56.22Z"/><circle class="cls-4" cx="61.42" cy="77.2" r="4.17"/><path class="cls-9" d="M61.42,79.87a2.67,2.67,0,1,1,2.67-2.67A2.67,2.67,0,0,1,61.42,79.87Zm0-4.33a1.67,1.67,0,1,0,1.67,1.66A1.66,1.66,0,0,0,61.42,75.54Z"/><path class="cls-3" d="M60.12,71.78a.36.36,0,0,1-.33-.21L58,68a.36.36,0,0,1,.17-.5.37.37,0,0,1,.5.17l1.79,3.57a.39.39,0,0,1-.17.51A.47.47,0,0,1,60.12,71.78Z"/><path class="cls-3" d="M61.42,81.8A4.6,4.6,0,1,1,66,77.2,4.61,4.61,0,0,1,61.42,81.8Zm0-8.34a3.74,3.74,0,1,0,3.74,3.74A3.75,3.75,0,0,0,61.42,73.46Z"/><rect class="cls-1" x="3.71" y="75.73" width="5.8" height="11.03" transform="translate(-8.63 1.17) rotate(-6.12)"/><path class="cls-2" d="M9.14,85.43a.5.5,0,0,1-.5-.45l-.39-3.92a.5.5,0,0,1,1-.1l.38,3.92a.49.49,0,0,1-.44.54Z"/><path class="cls-2" d="M6.06,82.25a4.83,4.83,0,0,1-2.28-.55A.49.49,0,0,1,3.6,81a.5.5,0,0,1,.68-.19,4,4,0,0,0,4.32-.48.51.51,0,0,1,.7.1.5.5,0,0,1-.1.7A5.1,5.1,0,0,1,6.06,82.25Z"/><rect class="cls-1" x="6.31" y="65.89" width="5.79" height="9.6" transform="translate(30.99 2.81) rotate(25.21)"/><path class="cls-2" d="M11.87,72.82a8.69,8.69,0,0,0-4.62-4.76l1.38-2.94,5.24,2.46S12.42,74.11,11.87,72.82Z"/><path class="cls-3" d="M9.78,76.7a.58.58,0,0,1-.18,0L4.36,74.19a.44.44,0,0,1-.21-.57l1.2-2.54a.43.43,0,0,1,.78.37l-1,2.15,4.45,2.1,3.73-7.91-4.46-2.1L7,69.66a.43.43,0,1,1-.78-.36l2.05-4.37a.45.45,0,0,1,.25-.22.42.42,0,0,1,.33,0l5.23,2.46a.44.44,0,0,1,.21.58l-4.09,8.68A.42.42,0,0,1,9.78,76.7Z"/><rect class="cls-4" x="24.48" y="53.43" width="18.64" height="2.26"/><rect class="cls-4" x="24.48" y="55.69" width="18.64" height="2.26"/><rect class="cls-6" x="24.48" y="50.26" width="18.64" height="2.26"/><rect class="cls-6" x="24.48" y="52.52" width="18.64" height="2.26"/><rect class="cls-6" x="36.16" y="53.9" width="6.94" height="4.24"/><path class="cls-7" d="M9.45,31.29H11a0,0,0,0,1,0,0v13a0,0,0,0,1,0,0H9.45a2.24,2.24,0,0,1-2.24-2.24V33.53a2.24,2.24,0,0,1,2.24-2.24Z"/><path class="cls-8" d="M11.19,31.29h1.57a0,0,0,0,1,0,0v13a0,0,0,0,1,0,0H11.19a2.24,2.24,0,0,1-2.24-2.24V33.53a2.24,2.24,0,0,1,2.24-2.24Z"/><rect class="cls-4" x="11.02" y="22.35" width="45.55" height="30.85" rx="4.83"/><path class="cls-6" d="M56.19,27.19V48.37a4.84,4.84,0,0,1-4.83,4.84h-4a4.84,4.84,0,0,0,4.83-4.84V27.19a4.84,4.84,0,0,0-4.83-4.84h4A4.84,4.84,0,0,1,56.19,27.19Z"/><path class="cls-5" d="M11.27,27.19V48.37a4.84,4.84,0,0,0,4.83,4.84h3.95a4.84,4.84,0,0,1-4.83-4.84V27.19a4.84,4.84,0,0,1,4.83-4.84H16.1A4.84,4.84,0,0,0,11.27,27.19Z"/><circle class="cls-5" cx="14.05" cy="61.87" r="6.21"/><circle class="cls-4" cx="15.6" cy="62.93" r="6.21"/><path class="cls-3" d="M4.41,87.65A.43.43,0,0,1,4,87.28l-.46-3.57a.43.43,0,0,1,.37-.48.46.46,0,0,1,.49.37l.4,3.15,4.77-.52L8.46,76.12l-5,.53.54,5a.43.43,0,0,1-.85.09l-.59-5.45A.43.43,0,0,1,3,75.84l5.8-.63a.47.47,0,0,1,.32.1.4.4,0,0,1,.15.29l1.18,11a.44.44,0,0,1-.38.48l-5.62.61Z"/><path class="cls-3" d="M14.05,68.51A6.65,6.65,0,0,1,7.4,61.87a6.54,6.54,0,0,1,.39-2.23.43.43,0,1,1,.81.29A5.78,5.78,0,1,0,9.76,58a.43.43,0,0,1-.64-.57,6.64,6.64,0,1,1,4.93,11.09Z"/><path class="cls-4" d="M50.75,91.8H16.84A3.2,3.2,0,0,1,13.67,89L11,62.78a4.84,4.84,0,0,1,4.83-4.84H51.74a4.84,4.84,0,0,1,4.83,4.84L53.92,89A3.2,3.2,0,0,1,50.75,91.8Z"/><path class="cls-6" d="M56.72,62.5,54.07,88.72a3.21,3.21,0,0,1-3.18,2.8H46.8A3.2,3.2,0,0,0,50,88.72L52.62,62.5a4.84,4.84,0,0,0-4.83-4.84h4.09A4.84,4.84,0,0,1,56.72,62.5Z"/><path class="cls-5" d="M11.08,62.5l2.65,26.22a3.21,3.21,0,0,0,3.18,2.8H21a3.2,3.2,0,0,1-3.17-2.8L15.18,62.5A4.84,4.84,0,0,1,20,57.66H15.92A4.84,4.84,0,0,0,11.08,62.5Z"/><path class="cls-3" d="M50.75,92.23H16.84a3.64,3.64,0,0,1-3.6-3.18l-.59-5.88A.43.43,0,0,1,13,82.7a.42.42,0,0,1,.47.39L14.1,89a2.76,2.76,0,0,0,2.74,2.42H50.75a2.78,2.78,0,0,0,2.75-2.43l2.64-26.21a4.4,4.4,0,0,0-4.4-4.36H15.85a4.41,4.41,0,0,0-4.4,4.41l1.81,17.91a.43.43,0,0,1-.38.47.43.43,0,0,1-.47-.39L10.59,62.82a5.28,5.28,0,0,1,5.26-5.31H51.74A5.27,5.27,0,0,1,57,62.78L54.35,89A3.64,3.64,0,0,1,50.75,92.23Z"/><path class="cls-10" d="M47.39,88.44H20.21a2.56,2.56,0,0,1-2.55-2.25l-2.12-21a3.88,3.88,0,0,1,3.87-3.88H48.18a3.88,3.88,0,0,1,3.87,3.88l-2.12,21A2.56,2.56,0,0,1,47.39,88.44Z"/><path class="cls-11" d="M25.15,88.44H20.21a2.56,2.56,0,0,1-2.55-2.24l-2.12-21a3.88,3.88,0,0,1,3.87-3.88h4.94a3.88,3.88,0,0,0-3.87,3.88l2.12,21A2.56,2.56,0,0,0,25.15,88.44Z"/><path class="cls-12" d="M42.79,88.44h4.94a2.56,2.56,0,0,0,2.55-2.24l2.12-21a3.88,3.88,0,0,0-3.87-3.88H43.59a3.88,3.88,0,0,1,3.87,3.88l-2.12,21A2.56,2.56,0,0,1,42.79,88.44Z"/><rect class="cls-10" x="14.16" y="25.8" width="39.28" height="23.76" rx="3.26"/><path class="cls-3" d="M7.21,40.4A.43.43,0,0,1,6.78,40v-3.9a.43.43,0,0,1,.43-.43.43.43,0,0,1,.43.43V40A.43.43,0,0,1,7.21,40.4Z"/><path class="cls-3" d="M11,44.7H9.45a2.64,2.64,0,0,1-2.64-2.63.4.4,0,0,1,.8,0,1.84,1.84,0,0,0,1.84,1.84h1.17V31.69H9.45a1.84,1.84,0,0,0-1.84,1.84.4.4,0,0,1-.8,0,2.64,2.64,0,0,1,2.64-2.64H11a.4.4,0,0,1,.4.4v13A.4.4,0,0,1,11,44.7Z"/><path class="cls-3" d="M43.11,56.12H24.48a.43.43,0,0,1-.43-.43V53.43a.43.43,0,0,1,.43-.43H43.11a.43.43,0,0,1,.43.43v2.26A.43.43,0,0,1,43.11,56.12Zm-18.2-.86H42.68v-1.4H24.91Z"/><path class="cls-3" d="M43.11,58.38H24.48a.43.43,0,0,1-.43-.43V55.69a.43.43,0,0,1,.43-.43h4.66a.43.43,0,0,1,0,.86H24.91v1.4H42.68v-1.4H31.4a.43.43,0,1,1,0-.86H43.11a.43.43,0,0,1,.43.43V58A.43.43,0,0,1,43.11,58.38Z"/><circle class="cls-4" cx="6.05" cy="77.07" r="4.17"/><path class="cls-9" d="M6.05,79.74a2.67,2.67,0,1,1,2.66-2.67A2.68,2.68,0,0,1,6.05,79.74Zm0-4.33a1.67,1.67,0,1,0,1.66,1.66A1.66,1.66,0,0,0,6.05,75.41Z"/><path class="cls-4" d="M11.1,86.58,7.32,84.42a1.43,1.43,0,0,0-.83-.17,1.43,1.43,0,0,0-.83.17L1.88,86.58a2.89,2.89,0,0,0-1.45,2.5v4A1.54,1.54,0,1,0,3.5,93V89.19l3-1.71,3,1.71V93a1.54,1.54,0,1,0,3.07,0v-4A2.89,2.89,0,0,0,11.1,86.58Z"/><path class="cls-3" d="M11,95.07a2,2,0,0,1-2-2V89.51L6.49,88,3.93,89.51V93.1A2,2,0,1,1,0,93.1V89.15a3.33,3.33,0,0,1,1.66-2.87l3.78-2.16a1.88,1.88,0,0,1,1.07-.23,1.82,1.82,0,0,1,1,.23l3.77,2.16h0A3.32,3.32,0,0,1,13,89.15V93.1A2,2,0,0,1,11,95.07ZM6.49,87.12a.38.38,0,0,1,.21,0l3,1.71a.44.44,0,0,1,.21.38V93.1a1.11,1.11,0,1,0,2.21,0V89.15A2.48,2.48,0,0,0,10.88,87L7.11,84.87a1,1,0,0,0-.6-.12,1.17,1.17,0,0,0-.64.11L2.09,87A2.47,2.47,0,0,0,.86,89.15V93.1a1.11,1.11,0,1,0,2.21,0V89.26a.44.44,0,0,1,.21-.38l3-1.71A.38.38,0,0,1,6.49,87.12Z"/><polygon class="cls-11" points="28.21 49.67 21.56 49.67 32.37 26 39.02 26 28.21 49.67"/><polygon class="cls-11" points="47.25 49.67 29.61 49.67 40.42 26 47.07 26 47.25 49.67"/><path class="cls-3" d="M49.79,48.12H42.5a.43.43,0,0,1,0-.86h7.29a.43.43,0,1,1,0,.86Z"/><path class="cls-3" d="M41.09,48.12H39.27a.43.43,0,0,1,0-.86h1.82a.43.43,0,0,1,0,.86Z"/><path class="cls-3" d="M46.88,86.84h-6.1a.37.37,0,0,1-.38-.37.38.38,0,0,1,.38-.38h6.1a.38.38,0,0,1,.37.38A.37.37,0,0,1,46.88,86.84Z"/><path class="cls-3" d="M14.36,78.75a.43.43,0,0,1-.43-.38l-1-8.54a.45.45,0,0,1,.38-.48.44.44,0,0,1,.48.38l1,8.54a.43.43,0,0,1-.38.48Z"/><path class="cls-3" d="M2.64,88.39a.43.43,0,0,1-.21-.8l3.28-1.91a.44.44,0,0,1,.59.16.43.43,0,0,1-.16.59l-3.28,1.9A.43.43,0,0,1,2.64,88.39Z"/><path class="cls-3" d="M7.35,71.7a.41.41,0,0,1-.19,0,.42.42,0,0,1-.2-.57L8.75,67.5a.43.43,0,0,1,.58-.19.42.42,0,0,1,.19.57L7.73,71.46A.43.43,0,0,1,7.35,71.7Z"/><path class="cls-3" d="M6.05,81.67a4.6,4.6,0,1,1,4.6-4.6A4.6,4.6,0,0,1,6.05,81.67Zm0-8.34a3.74,3.74,0,1,0,3.74,3.74A3.74,3.74,0,0,0,6.05,73.33Z"/><circle class="cls-13" cx="33.56" cy="74.23" r="9.6"/><path class="cls-3" d="M33.56,84.21a10,10,0,1,1,10-10A10,10,0,0,1,33.56,84.21Zm0-19.2a9.23,9.23,0,1,0,9.23,9.22A9.24,9.24,0,0,0,33.56,65Z"/><path class="cls-14" d="M40.18,74.23c0-.91-1-1.71-2.79-2.21.46-1.78.27-3-.52-3.51s-2,0-3.31,1.3c-1.3-1.26-2.53-1.75-3.31-1.3s-1,1.73-.52,3.51c-1.78.5-2.79,1.3-2.79,2.21s1,1.71,2.79,2.21c-.46,1.78-.27,3,.52,3.51a1.29,1.29,0,0,0,.67.17,4.31,4.31,0,0,0,2.64-1.47,4.31,4.31,0,0,0,2.64,1.47,1.29,1.29,0,0,0,.67-.17c.79-.46,1-1.73.52-3.51C39.17,75.94,40.18,75.15,40.18,74.23Zm-6.62,3.62a12.17,12.17,0,0,1-.8-.95l.8,0,.8,0A12.17,12.17,0,0,1,33.56,77.85Zm0-7.24a12.17,12.17,0,0,1,.8,1,14.23,14.23,0,0,0-1.6,0A12.17,12.17,0,0,1,33.56,70.61Zm-1.21,5.72a15.65,15.65,0,0,1-1.21-2.1,15,15,0,0,1,1.21-2.09,16.29,16.29,0,0,1,2.42,0A15,15,0,0,1,36,74.23a15.65,15.65,0,0,1-1.21,2.1A16.29,16.29,0,0,1,32.35,76.33Zm-1.13-3.45-.38.71q-.24-.59-.42-1.17c.4-.09.81-.16,1.22-.21Zm-.38,2,.38.7.42.68c-.43-.06-.84-.13-1.22-.22C30.54,75.65,30.68,75.26,30.84,74.88Zm5.44,0c.16.38.3.77.42,1.16-.4.09-.81.16-1.22.22C35.77,75.81,36,75.35,36.28,74.88Zm0-1.29a15.52,15.52,0,0,0-.8-1.38c.41.05.82.12,1.22.21Q36.52,73,36.28,73.59Zm.31-4.6c.55.31.65,1.41.27,2.89a15.48,15.48,0,0,0-1.78-.27h0A15.36,15.36,0,0,0,34,70.21C35,69.16,36.05,68.67,36.59,69Zm-6.06,0a.71.71,0,0,1,.39-.1,3.87,3.87,0,0,1,2.25,1.32A15.36,15.36,0,0,0,32,71.61a13.42,13.42,0,0,0-1.78.27C29.88,70.4,30,69.3,30.53,69Zm-3,5.24c0-.63.9-1.26,2.37-1.68a12.73,12.73,0,0,0,.66,1.68h0a15,15,0,0,0-.66,1.68C28.4,75.5,27.5,74.86,27.5,74.23Zm3,5.24c-.55-.31-.65-1.41-.27-2.89a13.42,13.42,0,0,0,1.78.27h0a15.5,15.5,0,0,0,1.13,1.41C32.1,79.31,31.07,79.78,30.53,79.47Zm6.06,0a.71.71,0,0,1-.39.1h0A3.89,3.89,0,0,1,34,78.26a15.5,15.5,0,0,0,1.13-1.41h0a13.42,13.42,0,0,0,1.78-.27C37.24,78.06,37.14,79.16,36.59,79.47Zm.65-3.56a11.8,11.8,0,0,0-.65-1.68h0a11.43,11.43,0,0,0,.65-1.68c1.48.42,2.38,1,2.38,1.68S38.72,75.5,37.24,75.91Z"/><circle class="cls-14" cx="33.56" cy="74.23" r="1.18"/><path class="cls-13" d="M18.45,82a.38.38,0,0,1-.37-.34l-.7-6.21a.36.36,0,0,1,.33-.41.38.38,0,0,1,.41.33l.71,6.21a.39.39,0,0,1-.33.42Z"/><path class="cls-13" d="M16,39.39a.5.5,0,0,1-.5-.5v-7.6a.5.5,0,0,1,1,0v7.6A.5.5,0,0,1,16,39.39Z"/><path class="cls-13" d="M9,40a.38.38,0,0,1-.38-.38V35.09A.38.38,0,0,1,9,34.72a.37.37,0,0,1,.37.37v4.48A.37.37,0,0,1,9,40Z"/><path class="cls-3" d="M6.05,80.19a3.12,3.12,0,1,1,3.12-3.12A3.12,3.12,0,0,1,6.05,80.19Zm0-5.37A2.26,2.26,0,1,0,8.3,77.07,2.26,2.26,0,0,0,6.05,74.82Z"/><path class="cls-3" d="M61.42,80.32a3.12,3.12,0,1,1,3.12-3.12A3.12,3.12,0,0,1,61.42,80.32Zm0-5.37a2.26,2.26,0,1,0,2.26,2.25A2.25,2.25,0,0,0,61.42,75Z"/><rect class="cls-3" x="28.48" y="31.02" width="2.94" height="6.12" rx="1.47"/><circle class="cls-13" cx="28.48" cy="33.53" r="1.12"/><rect class="cls-3" x="35.97" y="31.02" width="2.94" height="6.12" rx="1.47"/><circle class="cls-13" cx="35.97" cy="33.53" r="1.12"/><circle class="cls-8" cx="32.69" cy="2.94" r="2.57"/><path class="cls-7" d="M31.42,5.05A.51.51,0,0,1,31,4.87a2.8,2.8,0,0,1,0-3.69.5.5,0,0,1,.71,0,.49.49,0,0,1,0,.7,1.8,1.8,0,0,0,0,2.39.5.5,0,0,1-.08.7A.45.45,0,0,1,31.42,5.05Z"/><path class="cls-3" d="M32.69,5.89a2.95,2.95,0,1,1,2.94-2.95A2.95,2.95,0,0,1,32.69,5.89Zm0-5.14a2.2,2.2,0,1,0,2.19,2.19A2.19,2.19,0,0,0,32.69.75Z"/><rect class="cls-6" x="35.72" y="22.35" width="11.14" height="1.85" rx="0.93"/><rect class="cls-5" x="19.58" y="49.67" width="11.14" height="1.85" rx="0.93"/><rect class="cls-5" x="19.58" y="22.35" width="11.14" height="1.85" rx="0.93"/><rect class="cls-11" x="24.56" y="86.43" width="11.14" height="1.85" rx="0.93"/><path class="cls-3" d="M51.74,53.58H15.85a5.21,5.21,0,0,1-5.21-5.21V27.19A5.21,5.21,0,0,1,15.85,22H51.74A5.21,5.21,0,0,1,57,27.19V48.37A5.21,5.21,0,0,1,51.74,53.58ZM15.85,22.73a4.46,4.46,0,0,0-4.46,4.46V48.37a4.46,4.46,0,0,0,4.46,4.46H51.74a4.46,4.46,0,0,0,4.46-4.46V27.19a4.46,4.46,0,0,0-4.46-4.46Z"/><path class="cls-3" d="M50.12,50.09H17.47a3.68,3.68,0,0,1-3.68-3.68V29.16a3.69,3.69,0,0,1,3.68-3.69h2.58a.43.43,0,1,1,0,.86H17.47a2.83,2.83,0,0,0-2.82,2.83V46.41a2.83,2.83,0,0,0,2.82,2.82H50.12a2.82,2.82,0,0,0,2.82-2.82V29.16a2.83,2.83,0,0,0-2.82-2.83H24a.43.43,0,0,1,0-.86H50.12a3.69,3.69,0,0,1,3.68,3.69V46.41A3.68,3.68,0,0,1,50.12,50.09Z"/><path class="cls-3" d="M47.38,88.87H20.21a3,3,0,0,1-3-2.62L15.88,72.83a.43.43,0,1,1,.85-.08l1.36,13.4A2.13,2.13,0,0,0,20.21,88H47.38a2.13,2.13,0,0,0,2.12-1.87l2.13-21a3.45,3.45,0,0,0-3.45-3.4H19.41A3.45,3.45,0,0,0,16,65.18l.48,4.73a.43.43,0,0,1-.39.47.42.42,0,0,1-.47-.38l-.48-4.78a4.32,4.32,0,0,1,4.3-4.35H48.18a4.31,4.31,0,0,1,4.3,4.31L50.36,86.24A3,3,0,0,1,47.38,88.87Z"/><rect class="cls-3" x="35.35" y="93.03" width="12.48" height="0.5"/><rect class="cls-3" x="36.38" y="105.97" width="10.25" height="0.5"/><rect class="cls-3" x="35.37" y="98.02" width="12.48" height="0.5"/><rect class="cls-3" x="35.37" y="96.7" width="12.48" height="0.5"/><rect class="cls-3" x="35.37" y="99.34" width="11.81" height="0.5"/><rect class="cls-3" x="36.03" y="100.66" width="11.15" height="0.5"/><rect class="cls-3" x="36.03" y="101.97" width="11.12" height="0.5"/><rect class="cls-3" x="18.96" y="93.03" width="12.48" height="0.5"/><rect class="cls-3" x="19.99" y="105.97" width="10.25" height="0.5"/><rect class="cls-3" x="18.99" y="98.02" width="12.48" height="0.5"/><rect class="cls-3" x="18.99" y="96.7" width="12.48" height="0.5"/><rect class="cls-3" x="18.99" y="99.34" width="11.8" height="0.5"/><rect class="cls-3" x="19.64" y="100.66" width="11.15" height="0.5"/><rect class="cls-3" x="19.64" y="101.97" width="11.12" height="0.5"/><rect class="cls-11" x="18.83" y="100.27" width="9.45" height="1.57" rx="0.79" transform="translate(121.53 66.85) rotate(83.88)"/><circle class="cls-3" cx="37.54" cy="105.16" r="0.37"/><circle class="cls-3" cx="20.69" cy="89.97" r="0.37"/><circle class="cls-3" cx="5.92" cy="77.07" r="0.37"/><circle class="cls-3" cx="61.42" cy="77.07" r="0.37"/><path class="cls-5" d="M66.92,64.85a.47.47,0,0,1-.34-.13.5.5,0,0,1,0-.71l2.15-2.34a.51.51,0,0,1,.71,0,.51.51,0,0,1,0,.71l-2.16,2.35A.46.46,0,0,1,66.92,64.85Z"/><path class="cls-6" d="M74,71.69a.46.46,0,0,1-.33-.13.5.5,0,0,1,0-.71l2.15-2.35a.5.5,0,0,1,.7,0,.5.5,0,0,1,0,.71l-2.15,2.35A.52.52,0,0,1,74,71.69Z"/><path class="cls-3" d="M72.59,74a3.42,3.42,0,0,1-.71-.07L67.63,73a2,2,0,0,1-.94-.55,1.9,1.9,0,0,1-.61-.86l-1.34-4.14a3.35,3.35,0,0,1,.7-3.25l2.66-2.92a2,2,0,0,1,2.77-.14,1.94,1.94,0,0,1,.64,1.36A1.91,1.91,0,0,1,71,63.88l-2.41,2.66.25.77a.43.43,0,0,1-.28.54.42.42,0,0,1-.54-.27l-.33-1a.45.45,0,0,1,.09-.43l2.59-2.84a1.11,1.11,0,0,0-.08-1.56,1.09,1.09,0,0,0-1.55.08l-2.66,2.92a2.45,2.45,0,0,0-.52,2.4l1.34,4.14a1,1,0,0,0,.37.49,1.15,1.15,0,0,0,.55.35l4.24.94a2.46,2.46,0,0,0,2.35-.75l2.66-2.92a1.11,1.11,0,0,0,.28-.8,1.08,1.08,0,0,0-.36-.76,1.11,1.11,0,0,0-1.56.07l-2.58,2.85a.42.42,0,0,1-.41.13l-3.37-.75a.43.43,0,0,1-.32-.28l-.25-.77a.45.45,0,0,1,.28-.55.43.43,0,0,1,.54.28l.18.54,2.88.64,2.42-2.66a2,2,0,0,1,2.77-.14A2,2,0,0,1,77.7,70l-2.65,2.92A3.33,3.33,0,0,1,72.59,74Z"/><path class="cls-5" d="M67.9,71.32a.5.5,0,0,1-.48-.35l-1.23-4a.5.5,0,0,1,1-.3l1.23,4a.5.5,0,0,1-.33.62A.39.39,0,0,1,67.9,71.32Z"/><path class="cls-5" d="M84.37,93.76a.5.5,0,0,1-.5-.5V89.41a.5.5,0,0,1,.5-.5.5.5,0,0,1,.5.5v3.85A.5.5,0,0,1,84.37,93.76Z"/><rect class="cls-1" x="143.61" y="64.87" width="5.8" height="11.03" transform="translate(101.84 -85.89) rotate(48.39)"/><path class="cls-2" d="M147.93,72.5a.49.49,0,0,1-.37-.16.5.5,0,0,1,0-.71L150.52,69a.49.49,0,0,1,.7,0,.5.5,0,0,1,0,.71l-2.93,2.63A.46.46,0,0,1,147.93,72.5Z"/><path class="cls-2" d="M147.87,72.8a.49.49,0,0,1-.49-.41,4,4,0,0,0-2.88-3.26.5.5,0,0,1,.22-1,5,5,0,0,1,3.64,4,.5.5,0,0,1-.4.59Z"/><path class="cls-3" d="M144.39,76.47a.45.45,0,0,1-.32-.14L140.19,72a.44.44,0,0,1,0-.61l4.1-3.63a.42.42,0,0,1,.6,0,.43.43,0,0,1,0,.61l-3.78,3.35,3.31,3.72,7.6-6.75-3.18-3.59-2.41,2a.42.42,0,0,1-.61,0,.43.43,0,0,1,0-.6l2.74-2.33a.43.43,0,0,1,.6,0L153,68.43a.44.44,0,0,1,0,.61l-8.25,7.32A.41.41,0,0,1,144.39,76.47Z"/><path class="cls-4" d="M153.41,69.46l-4.24-.94a1.53,1.53,0,0,1-.74-.43,1.6,1.6,0,0,1-.5-.69l-1.34-4.14a2.9,2.9,0,0,1,.61-2.82l2.66-2.93a1.53,1.53,0,0,1,2.27,2.06l-2.59,2.85,1.07,3.28,3.36.75,2.59-2.85a1.53,1.53,0,0,1,2.27,2.06l-2.66,2.93A2.9,2.9,0,0,1,153.41,69.46Z"/><path class="cls-3" d="M154.08,69.91a3.36,3.36,0,0,1-.71-.08h0l-4.25-.94a2,2,0,0,1-.94-.55,1.85,1.85,0,0,1-.61-.86l-1.34-4.14a3.35,3.35,0,0,1,.7-3.25l2.66-2.92a2,2,0,1,1,2.9,2.64l-2.41,2.66.91,2.81,2.88.64,2.42-2.66a2,2,0,0,1,2.9,2.64l-2.65,2.92A3.34,3.34,0,0,1,154.08,69.91Zm-.53-.92a2.46,2.46,0,0,0,2.35-.75l2.66-2.92a1.1,1.1,0,1,0-1.64-1.48l-2.58,2.84a.41.41,0,0,1-.41.13l-3.37-.74a.47.47,0,0,1-.32-.29l-1.06-3.28a.43.43,0,0,1,.09-.42l2.59-2.85a1.1,1.1,0,0,0-1.64-1.48l-2.65,2.92a2.47,2.47,0,0,0-.52,2.41l1.34,4.13a1,1,0,0,0,.37.49,1.08,1.08,0,0,0,.55.35Z"/><polygon class="cls-1" points="111.7 108.56 101.96 108.56 99.96 87.41 113.7 87.41 111.7 108.56"/><rect class="cls-2" x="100.22" y="85.9" width="12.96" height="4.52"/><path class="cls-3" d="M101.36,101.24a.43.43,0,0,1-.43-.39l-.66-6.27a.43.43,0,0,1,.86-.09l.65,6.27a.43.43,0,0,1-.38.48Z"/><path class="cls-3" d="M111.7,109H102a.42.42,0,0,1-.43-.4l-.37-5.52a.43.43,0,0,1,.4-.46.44.44,0,0,1,.46.4l.34,5.12h9l1.92-20.29h-12.8l.49,4.61a.44.44,0,0,1-.39.48.43.43,0,0,1-.47-.39l-.53-5.09a.44.44,0,0,1,.11-.33A.42.42,0,0,1,100,87H113.7a.43.43,0,0,1,.32.14.44.44,0,0,1,.11.33l-2,21.15A.43.43,0,0,1,111.7,109Z"/><circle class="cls-3" cx="110.64" cy="103.09" r="0.37"/><polygon class="cls-1" points="127.86 108.56 118.12 108.56 116.12 87.41 129.86 87.41 127.86 108.56"/><rect class="cls-2" x="116.38" y="85.9" width="12.96" height="4.52"/><path class="cls-3" d="M117.39,101.34a.43.43,0,0,1-.43-.4l-.53-6.37a.43.43,0,0,1,.4-.46.42.42,0,0,1,.46.39l.53,6.37a.42.42,0,0,1-.39.46Z"/><path class="cls-3" d="M127.86,109h-9.74a.42.42,0,0,1-.43-.4l-.37-5.52a.43.43,0,0,1,.4-.46.44.44,0,0,1,.46.4l.34,5.12h9l1.92-20.29H116.6l.48,4.61a.44.44,0,0,1-.39.48.43.43,0,0,1-.47-.39l-.53-5.09a.44.44,0,0,1,.11-.33.43.43,0,0,1,.32-.14h13.74a.43.43,0,0,1,.32.14.44.44,0,0,1,.11.33l-2,21.15A.43.43,0,0,1,127.86,109Z"/><path class="cls-3" d="M116.71,12.56a.39.39,0,0,1-.27-.11.37.37,0,0,1,0-.53l1.18-1.12L114,7a.37.37,0,0,1,0-.53.38.38,0,0,1,.53,0l3.94,4.07a.34.34,0,0,1,.1.27.36.36,0,0,1-.11.26L117,12.46A.39.39,0,0,1,116.71,12.56Z"/><path class="cls-3" d="M117.21,19.59a.4.4,0,0,1-.26-.1l-4-3.76a.4.4,0,0,1-.12-.27.34.34,0,0,1,.12-.27L115.25,13a.37.37,0,0,1,.53,0,.38.38,0,0,1,0,.53l-2,1.91,3.7,3.48a.38.38,0,0,1,0,.53A.36.36,0,0,1,117.21,19.59Z"/><path class="cls-7" d="M140.32,27.23h1.57a0,0,0,0,1,0,0v13a0,0,0,0,1,0,0h-1.57A2.24,2.24,0,0,1,138.08,38V29.46A2.24,2.24,0,0,1,140.32,27.23Z" transform="translate(279.97 67.46) rotate(180)"/><path class="cls-8" d="M138.39,27.23H140a0,0,0,0,1,0,0v13a0,0,0,0,1,0,0h-1.57A2.24,2.24,0,0,1,136.16,38V29.46a2.24,2.24,0,0,1,2.24-2.24Z" transform="translate(276.12 67.46) rotate(180)"/><path class="cls-3" d="M139.65,40.64h-1.57a.4.4,0,0,1-.4-.4v-13a.4.4,0,0,1,.4-.4h1.57a2.64,2.64,0,0,1,2.64,2.63V38A2.64,2.64,0,0,1,139.65,40.64Zm-1.17-.8h1.17A1.84,1.84,0,0,0,141.49,38V29.46a1.84,1.84,0,0,0-1.84-1.84h-1.17Z"/><path class="cls-3" d="M139.57,30.41a.4.4,0,0,1-.4-.4V27.58a.4.4,0,1,1,.8,0V30A.4.4,0,0,1,139.57,30.41Z"/><rect class="cls-1" x="136.86" y="61.96" width="5.79" height="9.6" transform="translate(294.63 67.62) rotate(154.79)"/><path class="cls-2" d="M137.66,68.39c1.6-3.72,4.06-4.24,4.06-4.24l-1.39-3-4.9,2.36S137.11,69.68,137.66,68.39Z"/><path class="cls-3" d="M139.18,72.76l-.15,0a.47.47,0,0,1-.24-.22l-4.09-8.69a.43.43,0,0,1,.21-.57l5.23-2.47a.42.42,0,0,1,.33,0,.35.35,0,0,1,.24.22l4.09,8.68a.43.43,0,0,1-.2.58l-5.24,2.46A.39.39,0,0,1,139.18,72.76Zm-3.52-8.91,3.72,7.91,4.46-2.1-3.72-7.91Z"/><circle class="cls-5" cx="134.91" cy="57.94" r="6.21"/><circle class="cls-4" cx="133.36" cy="59" r="6.21"/><path class="cls-3" d="M134.91,64.58a6.65,6.65,0,1,1,2.77-12.68.42.42,0,0,1,.21.57.43.43,0,0,1-.57.21,5.72,5.72,0,0,0-2.41-.53,5.78,5.78,0,1,0,4.45,2.09.43.43,0,1,1,.66-.55,6.65,6.65,0,0,1-5.11,10.89Z"/><circle class="cls-4" cx="142.91" cy="73.14" r="4.17"/><path class="cls-3" d="M141.61,67.71a.39.39,0,0,1-.34-.21l-1.78-3.58a.37.37,0,0,1,.16-.5.38.38,0,0,1,.51.17L142,67.17a.38.38,0,0,1-.17.5A.35.35,0,0,1,141.61,67.71Z"/><path class="cls-3" d="M142.91,77.74a4.6,4.6,0,1,1,4.6-4.6A4.61,4.61,0,0,1,142.91,77.74Zm0-8.34a3.74,3.74,0,1,0,3.74,3.74A3.74,3.74,0,0,0,142.91,69.4Z"/><rect class="cls-1" x="85.4" y="71.66" width="5.8" height="14.78" transform="translate(-7.93 9.87) rotate(-6.12)"/><path class="cls-2" d="M90.62,81.36a.49.49,0,0,1-.49-.45L89.74,77a.49.49,0,0,1,.45-.54.48.48,0,0,1,.54.44l.39,3.92a.5.5,0,0,1-.44.55Z"/><path class="cls-2" d="M87.55,78.19a5,5,0,0,1-2.28-.55.51.51,0,0,1-.18-.69.49.49,0,0,1,.68-.18h0a4,4,0,0,0,4.32-.48.5.5,0,1,1,.6.79A5.12,5.12,0,0,1,87.55,78.19Z"/><rect class="cls-1" x="87.8" y="61.83" width="5.79" height="9.6" transform="translate(37.02 -32.29) rotate(25.21)"/><path class="cls-2" d="M93.36,68.75A8.74,8.74,0,0,0,88.74,64l1.38-2.94,5.24,2.47S93.91,70,93.36,68.75Z"/><path class="cls-3" d="M91.27,72.63a.39.39,0,0,1-.18,0l-5.24-2.47a.4.4,0,0,1-.22-.24.47.47,0,0,1,0-.33L86.84,67a.43.43,0,0,1,.57-.21.44.44,0,0,1,.21.58l-1,2.14,4.45,2.1,3.73-7.91-4.46-2.1-1.87,4a.44.44,0,0,1-.58.2.43.43,0,0,1-.2-.57l2-4.36a.39.39,0,0,1,.25-.22.42.42,0,0,1,.33,0l5.23,2.47a.42.42,0,0,1,.21.57l-4.09,8.68a.45.45,0,0,1-.24.23Z"/><rect class="cls-4" x="105.97" y="49.37" width="18.64" height="2.26"/><rect class="cls-4" x="105.97" y="51.63" width="18.64" height="2.26"/><rect class="cls-6" x="105.97" y="46.19" width="18.64" height="2.26"/><rect class="cls-6" x="105.97" y="48.45" width="18.64" height="2.26"/><rect class="cls-6" x="117.65" y="49.84" width="6.94" height="4.24"/><path class="cls-7" d="M90.94,27.23h1.57a0,0,0,0,1,0,0v13a0,0,0,0,1,0,0H90.94A2.24,2.24,0,0,1,88.7,38V29.46a2.24,2.24,0,0,1,2.24-2.24Z"/><path class="cls-8" d="M92.68,27.23h1.57a0,0,0,0,1,0,0v13a0,0,0,0,1,0,0H92.68A2.24,2.24,0,0,1,90.44,38V29.46a2.24,2.24,0,0,1,2.24-2.24Z"/><rect class="cls-15" x="92.51" y="18.29" width="45.55" height="30.85" rx="4.83"/><path class="cls-16" d="M137.68,23.12V44.3a4.84,4.84,0,0,1-4.83,4.84H128.9a4.84,4.84,0,0,0,4.83-4.84V23.12a4.84,4.84,0,0,0-4.83-4.84h3.95A4.84,4.84,0,0,1,137.68,23.12Z"/><path class="cls-17" d="M92.76,23.12V44.3a4.84,4.84,0,0,0,4.83,4.84h4a4.84,4.84,0,0,1-4.83-4.84V23.12a4.84,4.84,0,0,1,4.83-4.84h-4A4.84,4.84,0,0,0,92.76,23.12Z"/><circle class="cls-5" cx="95.54" cy="57.8" r="6.21"/><circle class="cls-4" cx="97.09" cy="58.86" r="6.21"/><path class="cls-3" d="M86.3,87.44a.5.5,0,0,1-.49-.44l-.59-4.78a.49.49,0,0,1,.43-.55.5.5,0,0,1,.56.43l.53,4.29,4.63-.5L89.9,72.18l-4.81.52.73,6.8a.5.5,0,0,1-.45.55.49.49,0,0,1-.54-.44L84,72.31a.5.5,0,0,1,.44-.55l5.81-.62a.47.47,0,0,1,.36.11.49.49,0,0,1,.19.33l1.57,14.69a.49.49,0,0,1-.44.55l-5.61.62Z"/><path class="cls-3" d="M95.54,64.45a6.65,6.65,0,1,1,6.64-6.65A6.65,6.65,0,0,1,95.54,64.45Zm0-12.43a5.79,5.79,0,1,0,5.78,5.78A5.8,5.8,0,0,0,95.54,52Z"/><path class="cls-15" d="M132.24,87.73H98.33a3.2,3.2,0,0,1-3.17-2.8L92.51,58.71a4.83,4.83,0,0,1,4.83-4.83h35.89a4.83,4.83,0,0,1,4.83,4.83l-2.65,26.22A3.2,3.2,0,0,1,132.24,87.73Z"/><path class="cls-16" d="M138.21,58.43l-2.65,26.22a3.21,3.21,0,0,1-3.18,2.8h-4.09a3.2,3.2,0,0,0,3.17-2.8l2.65-26.22a4.84,4.84,0,0,0-4.83-4.84h4.09A4.84,4.84,0,0,1,138.21,58.43Z"/><path class="cls-17" d="M92.57,58.43l2.65,26.22a3.21,3.21,0,0,0,3.18,2.8h4.09a3.2,3.2,0,0,1-3.17-2.8L96.67,58.43a4.84,4.84,0,0,1,4.83-4.84H97.41A4.84,4.84,0,0,0,92.57,58.43Z"/><path class="cls-3" d="M132.24,88.16H98.33A3.64,3.64,0,0,1,94.73,85l-.59-5.88a.43.43,0,0,1,.38-.47A.42.42,0,0,1,95,79l.6,5.87a2.76,2.76,0,0,0,2.74,2.41h33.91A2.76,2.76,0,0,0,135,84.88l2.65-26.21a4.39,4.39,0,0,0-4.4-4.36H97.34a4.4,4.4,0,0,0-4.4,4.4l1.81,17.91a.42.42,0,0,1-.38.47.43.43,0,0,1-.47-.38l-1.82-18a5.28,5.28,0,0,1,5.26-5.3h35.89a5.27,5.27,0,0,1,5.26,5.26L135.84,85A3.64,3.64,0,0,1,132.24,88.16Z"/><path class="cls-18" d="M128.87,84.37H101.69a2.56,2.56,0,0,1-2.54-2.24L97,61.11a3.88,3.88,0,0,1,3.87-3.88h28.77a3.88,3.88,0,0,1,3.87,3.88l-2.12,21A2.56,2.56,0,0,1,128.87,84.37Z"/><path class="cls-11" d="M106.64,84.37H101.7a2.56,2.56,0,0,1-2.55-2.24L97,61.11a3.88,3.88,0,0,1,3.87-3.88h4.94A3.88,3.88,0,0,0,102,61.11l2.12,21A2.56,2.56,0,0,0,106.64,84.37Z"/><path class="cls-19" d="M124.28,84.37h4.94a2.56,2.56,0,0,0,2.55-2.24l2.12-21A3.88,3.88,0,0,0,130,57.23h-4.94A3.88,3.88,0,0,1,129,61.11l-2.12,21A2.56,2.56,0,0,1,124.28,84.37Z"/><rect class="cls-18" x="95.64" y="21.74" width="39.28" height="23.76" rx="3.26"/><path class="cls-3" d="M88.7,36.34a.43.43,0,0,1-.43-.43V32a.43.43,0,0,1,.43-.43.43.43,0,0,1,.43.43v3.91A.43.43,0,0,1,88.7,36.34Z"/><path class="cls-3" d="M92.51,40.64H90.94A2.64,2.64,0,0,1,88.3,38a.4.4,0,0,1,.4-.4.39.39,0,0,1,.39.4,1.85,1.85,0,0,0,1.85,1.84h1.17V27.62H90.94a1.85,1.85,0,0,0-1.85,1.84.39.39,0,0,1-.39.4.4.4,0,0,1-.4-.4,2.64,2.64,0,0,1,2.64-2.63h1.57a.4.4,0,0,1,.4.4v13A.4.4,0,0,1,92.51,40.64Z"/><path class="cls-3" d="M124.6,52.06H106a.43.43,0,0,1-.43-.43V49.37a.43.43,0,0,1,.43-.43H124.6a.43.43,0,0,1,.43.43v2.26A.43.43,0,0,1,124.6,52.06Zm-18.2-.86h17.77V49.8H106.4Z"/><path class="cls-3" d="M124.6,54.31H106a.43.43,0,0,1-.43-.43V51.63a.43.43,0,0,1,.43-.43h4.66a.43.43,0,0,1,.43.43.44.44,0,0,1-.43.43H106.4v1.39h17.77V52.06H112.88a.44.44,0,0,1-.43-.43.43.43,0,0,1,.43-.43H124.6a.43.43,0,0,1,.43.43v2.25A.43.43,0,0,1,124.6,54.31Z"/><circle class="cls-4" cx="87.54" cy="73" r="4.17"/><path class="cls-4" d="M93.59,86.51l-3.78-2.16a1.52,1.52,0,0,0-.83-.17,1.57,1.57,0,0,0-.84.17l-3.77,2.16A2.91,2.91,0,0,0,82.92,89v4A1.54,1.54,0,0,0,86,93V89.12l3-1.71,3,1.71V93A1.54,1.54,0,0,0,95,93V89A2.91,2.91,0,0,0,93.59,86.51Z"/><polygon class="cls-11" points="109.7 45.6 103.05 45.6 113.86 21.93 120.51 21.93 109.7 45.6"/><polygon class="cls-11" points="128.74 45.6 111.1 45.6 121.91 21.93 128.56 21.93 128.74 45.6"/><path class="cls-3" d="M128.37,82.78h-6.1a.38.38,0,0,1-.38-.38.37.37,0,0,1,.38-.37h6.1a.37.37,0,0,1,.37.37A.38.38,0,0,1,128.37,82.78Z"/><path class="cls-3" d="M95.85,74.69a.43.43,0,0,1-.43-.38l-1-8.55a.43.43,0,0,1,.38-.47.42.42,0,0,1,.48.38l1,8.54a.43.43,0,0,1-.38.47Z"/><path class="cls-3" d="M93.5,95a2,2,0,0,1-2-2v-3.6L89,88l-2.56,1.46V93a2,2,0,0,1-3.93,0v-4a3.33,3.33,0,0,1,1.66-2.87l3.78-2.16A2,2,0,0,1,89,83.82a1.91,1.91,0,0,1,1,.23l3.77,2.16h0a3.32,3.32,0,0,1,1.67,2.87v4A2,2,0,0,1,93.5,95Zm-4.52-8a.39.39,0,0,1,.21.06l3,1.71a.42.42,0,0,1,.21.37V93a1.11,1.11,0,0,0,2.21,0v-4A2.45,2.45,0,0,0,93.37,87L89.6,84.8a1,1,0,0,0-.6-.12,1.14,1.14,0,0,0-.64.12L84.58,87a2.44,2.44,0,0,0-1.23,2.12v4a1.1,1.1,0,1,0,2.2,0V89.19a.43.43,0,0,1,.22-.37l3-1.71A.46.46,0,0,1,89,87.05Z"/><path class="cls-3" d="M85.13,88.33a.42.42,0,0,1-.37-.22.43.43,0,0,1,.16-.59l3.28-1.9a.44.44,0,0,1,.59.15.43.43,0,0,1-.16.59l-3.28,1.91A.43.43,0,0,1,85.13,88.33Z"/><path class="cls-3" d="M88.84,67.63a.41.41,0,0,1-.19,0,.44.44,0,0,1-.2-.58l1.79-3.58a.43.43,0,0,1,.77.39l-1.79,3.57A.42.42,0,0,1,88.84,67.63Z"/><path class="cls-3" d="M87.54,77.61A4.61,4.61,0,1,1,92.14,73,4.61,4.61,0,0,1,87.54,77.61Zm0-8.34A3.74,3.74,0,1,0,91.28,73,3.73,3.73,0,0,0,87.54,69.27Z"/><circle class="cls-20" cx="115.05" cy="70.17" r="9.6"/><path class="cls-3" d="M115.05,80.14a10,10,0,0,1-7.3-16.77.38.38,0,1,1,.55.51,9.23,9.23,0,1,0,1.59-1.36.38.38,0,0,1-.52-.1.37.37,0,0,1,.1-.52,10,10,0,1,1,5.58,18.24Z"/><path class="cls-13" d="M99.54,79.21a.39.39,0,0,1-.37-.34l-.7-6.21a.36.36,0,0,1,.33-.41.37.37,0,0,1,.41.33l.71,6.21a.38.38,0,0,1-.33.41Z"/><path class="cls-13" d="M97.53,35.2a.38.38,0,0,1-.38-.37v-7.6a.38.38,0,0,1,.38-.38.37.37,0,0,1,.37.38v7.6A.37.37,0,0,1,97.53,35.2Z"/><path class="cls-13" d="M90.44,35.88a.38.38,0,0,1-.38-.38V31a.38.38,0,1,1,.75,0V35.5A.38.38,0,0,1,90.44,35.88Z"/><rect class="cls-3" x="109.97" y="25.25" width="2.94" height="6.12" rx="1.47"/><circle class="cls-13" cx="109.97" cy="27.76" r="1.12"/><rect class="cls-3" x="117.46" y="25.25" width="2.94" height="6.12" rx="1.47"/><circle class="cls-13" cx="117.46" cy="27.76" r="1.12"/><rect class="cls-21" x="117.21" y="18.29" width="11.14" height="1.85" rx="0.93"/><rect class="cls-17" x="101.07" y="45.6" width="11.14" height="1.85" rx="0.93"/><rect class="cls-17" x="101.07" y="18.29" width="11.14" height="1.85" rx="0.93"/><rect class="cls-11" x="106.05" y="82.36" width="11.14" height="1.85" rx="0.93"/><path class="cls-3" d="M133.23,49.52H97.34a5.22,5.22,0,0,1-5.21-5.21V23.12a5.22,5.22,0,0,1,5.21-5.21h35.89a5.22,5.22,0,0,1,5.21,5.21V44.31A5.22,5.22,0,0,1,133.23,49.52ZM97.34,18.66a4.46,4.46,0,0,0-4.46,4.46V44.31a4.46,4.46,0,0,0,4.46,4.46h35.89a4.46,4.46,0,0,0,4.46-4.46V23.12a4.46,4.46,0,0,0-4.46-4.46Z"/><path class="cls-3" d="M131.61,46H99a3.69,3.69,0,0,1-3.68-3.69V25.09A3.69,3.69,0,0,1,99,21.4h2.58a.43.43,0,1,1,0,.86H99a2.83,2.83,0,0,0-2.82,2.83V42.34A2.83,2.83,0,0,0,99,45.17h32.65a2.83,2.83,0,0,0,2.82-2.83V25.09a2.83,2.83,0,0,0-2.82-2.83H105.45a.43.43,0,1,1,0-.86h26.16a3.69,3.69,0,0,1,3.68,3.69V42.34A3.69,3.69,0,0,1,131.61,46Z"/><path class="cls-3" d="M128.88,84.8H101.69a3,3,0,0,1-3-2.62L97.37,68.77a.43.43,0,0,1,.85-.09l1.36,13.4a2.13,2.13,0,0,0,2.11,1.86h27.19A2.13,2.13,0,0,0,131,82.07l2.13-21a3.46,3.46,0,0,0-3.45-3.41H119.06a.43.43,0,0,1-.43-.43.43.43,0,0,1,.43-.43h10.61a4.31,4.31,0,0,1,4.3,4.31l-2.12,21.06A3,3,0,0,1,128.88,84.8Z"/><path class="cls-3" d="M116.94,57.66h-5.16a.43.43,0,0,1-.43-.43.43.43,0,0,1,.43-.43h5.16a.44.44,0,0,1,.44.43A.44.44,0,0,1,116.94,57.66Z"/><path class="cls-3" d="M97.51,66.32a.43.43,0,0,1-.43-.39l-.48-4.78a4.32,4.32,0,0,1,4.3-4.35h8.37a.43.43,0,0,1,.43.43.43.43,0,0,1-.43.43H100.9a3.45,3.45,0,0,0-3.44,3.45l.48,4.73a.44.44,0,0,1-.39.48Z"/><rect class="cls-3" x="116.46" y="88.97" width="12.86" height="0.5"/><rect class="cls-3" x="116.86" y="95.95" width="12.48" height="0.5"/><rect class="cls-3" x="116.86" y="94.64" width="12.48" height="0.5"/><rect class="cls-3" x="116.86" y="97.27" width="11.81" height="0.5"/><rect class="cls-3" x="117.52" y="98.59" width="11.15" height="0.5"/><rect class="cls-3" x="117.52" y="99.91" width="11.12" height="0.5"/><rect class="cls-3" x="100.45" y="88.97" width="12.92" height="0.5"/><rect class="cls-3" x="101.13" y="96.4" width="11.82" height="0.5"/><rect class="cls-3" x="100.47" y="95.08" width="12.48" height="0.5"/><rect class="cls-3" x="101.13" y="97.72" width="11.15" height="0.5"/><rect class="cls-3" x="101.13" y="99.03" width="11.15" height="0.5"/><rect class="cls-3" x="101.13" y="100.35" width="11.12" height="0.5"/><rect class="cls-11" x="98.57" y="96.74" width="9.45" height="1.57" rx="0.79" transform="translate(189.25 -15.59) rotate(83.88)"/><circle class="cls-3" cx="102.18" cy="85.9" r="0.37"/><path class="cls-9" d="M142.91,75.68a2.54,2.54,0,1,1,2.54-2.54A2.54,2.54,0,0,1,142.91,75.68Zm0-4.33a1.79,1.79,0,1,0,1.79,1.79A1.79,1.79,0,0,0,142.91,71.35Z"/><path class="cls-9" d="M142.91,74a.87.87,0,1,1,.87-.87A.87.87,0,0,1,142.91,74Zm0-1a.13.13,0,0,0-.13.13c0,.14.26.14.26,0A.13.13,0,0,0,142.91,73Z"/><path class="cls-9" d="M87.41,75.68A2.54,2.54,0,1,1,90,73.14,2.54,2.54,0,0,1,87.41,75.68Zm0-4.33a1.79,1.79,0,1,0,1.79,1.79A1.79,1.79,0,0,0,87.41,71.35Z"/><path class="cls-9" d="M87.41,74a.87.87,0,1,1,.88-.87A.87.87,0,0,1,87.41,74Zm0-1a.12.12,0,0,0-.12.13c0,.14.25.14.25,0A.13.13,0,0,0,87.41,73Z"/><path class="cls-3" d="M111.25,72.59a1,1,0,0,0,.35.08.61.61,0,0,0,.37-.14.63.63,0,0,0,.17-.5v-5.9h2.08V72.5a1.53,1.53,0,0,1-.2.8,1.44,1.44,0,0,1-.52.52,2.31,2.31,0,0,1-.76.29,4.24,4.24,0,0,1-.88.09,3.84,3.84,0,0,1-.76-.08,4.07,4.07,0,0,1-.67-.19,6,6,0,0,1-.55-.24l1-1.28Z"/><path class="cls-3" d="M116.37,72.2a1.58,1.58,0,0,0,.48.33,1.35,1.35,0,0,0,.52.11.7.7,0,0,0,.37-.09.32.32,0,0,0,.16-.29.27.27,0,0,0-.09-.2,1.18,1.18,0,0,0-.31-.2c-.16-.07-.4-.17-.73-.29l-.48-.23a2.36,2.36,0,0,1-.53-.38,2,2,0,0,1-.42-.56,1.73,1.73,0,0,1-.16-.78,1.51,1.51,0,0,1,.31-1,1.85,1.85,0,0,1,.84-.6,3,3,0,0,1,1.13-.21,2.85,2.85,0,0,1,1.15.21,2.25,2.25,0,0,1,.79.51,2.13,2.13,0,0,1,.47.61l-1.38.76a1.43,1.43,0,0,0-.3-.34,1.24,1.24,0,0,0-.34-.18,1,1,0,0,0-.33-.06.76.76,0,0,0-.32.07.24.24,0,0,0-.12.21.36.36,0,0,0,.17.3,2.68,2.68,0,0,0,.47.21l.63.22a4.24,4.24,0,0,1,.64.3,1.93,1.93,0,0,1,.48.41,1.63,1.63,0,0,1,.3.51,1.81,1.81,0,0,1,.1.63,1.75,1.75,0,0,1-.2.87,1.86,1.86,0,0,1-.55.63,2.61,2.61,0,0,1-.77.37,3,3,0,0,1-.9.13,3.29,3.29,0,0,1-1.18-.21,3.12,3.12,0,0,1-1-.57,2.75,2.75,0,0,1-.6-.82l1.26-.91A2.22,2.22,0,0,0,116.37,72.2Z"/><rect class="cls-4" x="101.85" y="33.92" width="27.67" height="8.51" rx="4.25"/><path class="cls-6" d="M129.12,38.17a4.27,4.27,0,0,1-4.26,4.26h-3.21a4.26,4.26,0,1,0,0-8.51h3.21A4.25,4.25,0,0,1,129.12,38.17Z"/><path class="cls-5" d="M101.45,38.17a4.27,4.27,0,0,0,4.26,4.26h3.21a4.26,4.26,0,1,1,0-8.51h-3.21A4.25,4.25,0,0,0,101.45,38.17Z"/><path class="cls-3" d="M124.87,42.85H105.7a4.68,4.68,0,0,1,0-9.36h19.17a4.68,4.68,0,1,1,0,9.36Zm-19.17-8.5a3.82,3.82,0,0,0,0,7.64h19.17a3.82,3.82,0,0,0,0-7.64Z"/><path class="cls-3" d="M110.13,42.86a.43.43,0,0,1-.43-.43V38.19a.43.43,0,0,1,.43-.43.43.43,0,0,1,.43.43v4.24A.44.44,0,0,1,110.13,42.86Z"/><path class="cls-3" d="M110.13,36.34a.43.43,0,0,1-.43-.43V34a.43.43,0,0,1,.43-.43.44.44,0,0,1,.43.43v2A.43.43,0,0,1,110.13,36.34Z"/><path class="cls-3" d="M112.71,42.86a.44.44,0,0,1-.44-.43V34a.44.44,0,0,1,.87,0v8.48A.44.44,0,0,1,112.71,42.86Z"/><path class="cls-3" d="M115.29,42.86a.44.44,0,0,1-.44-.43V40.58a.44.44,0,0,1,.87,0v1.85A.44.44,0,0,1,115.29,42.86Z"/><path class="cls-3" d="M115.29,39.13a.44.44,0,0,1-.44-.43V34a.44.44,0,0,1,.87,0V38.7A.44.44,0,0,1,115.29,39.13Z"/><path class="cls-3" d="M120.44,42.86a.44.44,0,0,1-.43-.43V37.14a.44.44,0,0,1,.43-.43.43.43,0,0,1,.43.43v5.29A.43.43,0,0,1,120.44,42.86Z"/><path class="cls-3" d="M120.44,35.6a.44.44,0,0,1-.43-.43V34a.44.44,0,0,1,.43-.43.43.43,0,0,1,.43.43v1.22A.43.43,0,0,1,120.44,35.6Z"/><path class="cls-3" d="M117.86,42.86a.44.44,0,0,1-.43-.43V34a.44.44,0,0,1,.43-.43.43.43,0,0,1,.43.43v8.48A.43.43,0,0,1,117.86,42.86Z"/><path class="cls-3" d="M123,42.86a.44.44,0,0,1-.43-.43V34a.44.44,0,0,1,.43-.43.43.43,0,0,1,.43.43v8.48A.43.43,0,0,1,123,42.86Z"/><path class="cls-3" d="M107.55,42.86a.43.43,0,0,1-.43-.43V34a.43.43,0,0,1,.43-.43A.44.44,0,0,1,108,34v8.48A.44.44,0,0,1,107.55,42.86Z"/><path class="cls-3" d="M104.9,38.1a.43.43,0,0,1-.43-.43V34.2a.43.43,0,0,1,.86,0v3.47A.43.43,0,0,1,104.9,38.1Z"/><path class="cls-3" d="M104.9,42.43a.43.43,0,0,1-.43-.43V39.74a.43.43,0,0,1,.86,0V42A.43.43,0,0,1,104.9,42.43Z"/><path class="cls-3" d="M126.3,38.1a.43.43,0,0,1-.43-.43V34.2a.43.43,0,1,1,.86,0v3.47A.43.43,0,0,1,126.3,38.1Z"/><path class="cls-3" d="M126.3,42.43a.43.43,0,0,1-.43-.43V39.74a.43.43,0,1,1,.86,0V42A.43.43,0,0,1,126.3,42.43Z"/><circle class="cls-8" cx="113.7" cy="6.74" r="2.57"/><path class="cls-7" d="M112.43,8.85a.51.51,0,0,1-.39-.18,2.8,2.8,0,0,1,0-3.69.5.5,0,0,1,.71,0,.49.49,0,0,1,0,.7,1.8,1.8,0,0,0,0,2.39.49.49,0,0,1-.07.7A.48.48,0,0,1,112.43,8.85Z"/><path class="cls-3" d="M113.7,9.69a2.95,2.95,0,1,1,3-2.95A3,3,0,0,1,113.7,9.69Zm0-5.14a2.2,2.2,0,1,0,2.2,2.19A2.19,2.19,0,0,0,113.7,4.55Z"/><path class="cls-13" d="M112.83,7.07a1.22,1.22,0,0,1-.06-.26v.1a1.82,1.82,0,0,1,0-.33v.1a1.1,1.1,0,0,1,.06-.26.36.36,0,0,0,0-.29.41.41,0,0,0-.23-.18.42.42,0,0,0-.29,0,.5.5,0,0,0-.17.23,1.58,1.58,0,0,0,0,1,.38.38,0,0,0,.46.26.38.38,0,0,0,.22-.17.34.34,0,0,0,0-.29Z"/><polygon class="cls-4" points="113.17 112.06 98.49 112.06 99.62 107.54 112.04 107.54 113.17 112.06"/><polygon class="cls-5" points="102.2 107.54 101.2 112.06 98.51 112.06 99.51 107.54 102.2 107.54"/><polygon class="cls-6" points="113.13 112.06 110.44 112.06 109.44 107.54 112.13 107.54 113.13 112.06"/><path class="cls-3" d="M113.45,112.52H98.21a.45.45,0,0,1-.37-.18.44.44,0,0,1-.08-.4l1.17-4.52a.47.47,0,0,1,.45-.35h5a.47.47,0,0,1,.47.47.46.46,0,0,1-.47.46H99.74l-.93,3.59h14l-.93-3.59h-5.19a.46.46,0,0,1-.47-.46.47.47,0,0,1,.47-.47h5.55a.48.48,0,0,1,.45.35l1.17,4.52a.44.44,0,0,1-.08.4A.46.46,0,0,1,113.45,112.52Z"/><path class="cls-3" d="M112,110.64h-7.49a.25.25,0,0,1-.25-.25.26.26,0,0,1,.25-.25H112a.25.25,0,0,1,.25.25A.25.25,0,0,1,112,110.64Z"/><path class="cls-3" d="M102.6,110.64H99a.25.25,0,0,1-.25-.25.26.26,0,0,1,.25-.25h3.59a.25.25,0,0,1,.25.25A.25.25,0,0,1,102.6,110.64Z"/><polygon class="cls-4" points="131.1 112.06 116.43 112.06 117.56 107.54 129.97 107.54 131.1 112.06"/><polygon class="cls-5" points="120.14 107.54 119.14 112.06 116.45 112.06 117.45 107.54 120.14 107.54"/><polygon class="cls-6" points="131.06 112.06 128.37 112.06 127.37 107.54 130.06 107.54 131.06 112.06"/><path class="cls-3" d="M131.39,112.52H116.14a.43.43,0,0,1-.36-.18.48.48,0,0,1-.09-.4l1.18-4.52a.47.47,0,0,1,.45-.35h5a.47.47,0,0,1,.46.47.46.46,0,0,1-.46.46h-4.63l-.93,3.59h14l-.93-3.59h-5.18a.46.46,0,0,1-.47-.46.47.47,0,0,1,.47-.47h5.54a.47.47,0,0,1,.45.35l1.18,4.52a.48.48,0,0,1-.09.4A.43.43,0,0,1,131.39,112.52Z"/><path class="cls-3" d="M129.89,110.64H122.4a.25.25,0,0,1-.25-.25.25.25,0,0,1,.25-.25h7.49a.25.25,0,0,1,.25.25A.25.25,0,0,1,129.89,110.64Z"/><path class="cls-3" d="M120.54,110.64H117a.25.25,0,0,1-.25-.25.25.25,0,0,1,.25-.25h3.59a.26.26,0,0,1,.25.25A.25.25,0,0,1,120.54,110.64Z"/><circle class="cls-3" cx="122.77" cy="102.85" r="0.37"/><path class="cls-3" d="M122.77,104.63a1.79,1.79,0,1,1,1.78-1.78A1.79,1.79,0,0,1,122.77,104.63Zm0-3.07a1.29,1.29,0,1,0,1.28,1.29A1.29,1.29,0,0,0,122.77,101.56Z"/><path class="cls-6" d="M155.39,67.72a.46.46,0,0,1-.33-.13.48.48,0,0,1,0-.7l2.15-2.35a.5.5,0,0,1,.71,0,.5.5,0,0,1,0,.7l-2.16,2.35A.49.49,0,0,1,155.39,67.72Z"/><path class="cls-5" d="M149.16,66.63a.51.51,0,0,1-.48-.35l-1.23-4a.5.5,0,0,1,1-.29l1.23,4a.51.51,0,0,1-.33.63Z"/><circle class="cls-3" cx="138.69" cy="53" r="0.48"/><path class="cls-13" d="M109.28,20.64H104a.5.5,0,0,1,0-1h5.31a.5.5,0,0,1,0,1Z"/><circle class="cls-11" cx="103.99" cy="103.93" r="0.96"/></g></g></svg>